{"title":"The Vow 2012 TS XviD Feel-Free","uid":7050626,"size":992693358,"categoryP":"video","categoryS":"movies","magnet":"?xt=urn:btih:d9f6fc9c4ced7e1bb9797fc595e111b003f9f459&amp;dn=The+Vow+2012+TS+XviD+Feel-Free&amp;tr=udp%3A%2F%2Ftracker.openbittorrent.com%3A80&amp;tr=udp%3A%2F%2Fopen.demonii.com%3A1337&amp;tr=udp%3A%2F%2Ftracker.coppersurfer.tk%3A6969&amp;tr=udp%3A%2F%2Fexodus.desync.com%3A6969","seeders":0,"leechers":1,"uploader":"marlaspice","files":10,"time":1329936280,"description":"Genre:Drama | Romance\nLanguage:English\nIMDb:http://www.imdb.com/title/tt1606389/\nSource:INFERNO/INSPiRAL Thanks!\nEncoder:Tony\n\nFormat : AVI\nFormat/Info : Audio Video Interleave\nFile size : 945 MiB\nDuration : 1h 39mn\nOverall bit rate : 1 328 Kbps\n\nVideo\nID : 0\nFormat : MPEG-4 Visual\nFormat profile : Advanced Simple@L5\nFormat settings, BVOP : 2\nFormat settings, QPel : No\nFormat settings, GMC : No warppoints\nFormat settings, Matrix : Default (H.263)\nMuxing mode : Packed bitstream\nCodec ID : XVID\nCodec ID/Hint : XviD\nDuration : 1h 39mn\nBit rate : 1 188 Kbps\nWidth : 624 pixels\nHeight : 264 pixels\nDisplay aspect ratio : 2.35:1\nFrame rate : 29.970 fps\nColor space : YUV\nChroma subsampling : 4:2:0\nBit depth : 8 bits\nScan type : Progressive\nCompression mode : Lossy\nBits/(Pixel*Frame) : 0.241\nStream size : 846 MiB (89%)\nWriting library : XviD 64\n\nAudio\nID : 1\nFormat : MPEG Audio\nFormat version : Version 1\nFormat profile : Layer 3\nMode : Joint stereo\nMode extension : MS Stereo\nCodec ID : 55\nCodec ID/Hint : MP3\nDuration : 1h 39mn\nBit rate mode : Constant\nBit rate : 128 Kbps\nChannel(s) : 2 channels\nSampling rate : 44.1 KHz\nCompression mode : Lossy\nStream size : 91.1 MiB (10%)\nAlignment : Split accross interleaves\nInterleave, duration : 33 ms (1.00 video frame)\nInterleave, preload duration : 500 ms\n\n\nPlot:\nA car accident puts Paige (McAdams) in a coma, and when she wakes up with severe memory loss, her husband Leo (Tatum) works to win her heart again.\n\nGreets:\n\nCRYS,IMAGINE,LKRG,FXG,3Li,FLAWL3SS,TA,iLLUSiON,EMBER,HOPE,GooN,BBnRG,NOGRP,ETRG,BHRG,iLLUMiNATi,MiSTERE.ViSiON,DTRG SAFCuk009,LU,TheFalcon007,MYSTiC,PrisM,Noir,WBZ,LAP,Rx,Kingdom,SAFCuk009+Fabreezy,HDLiTE,TWiZTED,ExtraTorrentRG.ELEKTRI4KA,MAGNAT,CM8\nAnd to all the other p2p grps past and present\n\n\nMake sure its a real Feel-Free release @\n\nThanks to all who promotes release Feel-Free !!!","torrent":{"xt":"urn:btih:d9f6fc9c4ced7e1bb9797fc595e111b003f9f459","amp;dn":"The+Vow+2012+TS+XviD+Feel-Free","amp;tr":["udp%3A%2F%2Ftracker.openbittorrent.com%3A80","udp%3A%2F%2Fopen.demonii.com%3A1337","udp%3A%2F%2Ftracker.coppersurfer.tk%3A6969","udp%3A%2F%2Fexodus.desync.com%3A6969"],"infoHash":"d9f6fc9c4ced7e1bb9797fc595e111b003f9f459","infoHashBuffer":{"type":"Buffer","data":[217,246,252,156,76,237,126,27,185,121,127,197,149,225,17,176,3,249,244,89]},"announce":[],"urlList":[]}}